<svg xmlns="http://www.w3.org/2000/svg" xmlns:xlink="http://www.w3.org/1999/xlink" width="500" zoomAndPan="magnify" viewBox="0 0 375 374.999991" height="500" preserveAspectRatio="xMidYMid meet" version="1.0"><defs><g/><clipPath id="50796199f0"><path d="M 349.753906 143.6875 L 375 143.6875 L 375 169.1875 L 349.753906 169.1875 Z M 349.753906 143.6875 " clip-rule="nonzero"/></clipPath><clipPath id="1186129b04"><path d="M 333 59 L 345.761719 59 L 345.761719 71 L 333 71 Z M 333 59 " clip-rule="nonzero"/></clipPath><clipPath id="025eeee5d4"><rect x="0" width="346" y="0" height="98"/></clipPath></defs><path fill="#000000" d="M 364.367188 154.042969 C 364.367188 154.386719 364.289062 154.695312 364.136719 154.957031 C 363.984375 155.210938 363.707031 155.417969 363.304688 155.570312 C 363.078125 155.652344 362.796875 155.71875 362.464844 155.761719 C 362.128906 155.804688 361.707031 155.824219 361.222656 155.824219 L 360.296875 155.824219 L 360.296875 152.492188 L 361.699219 152.492188 C 362.152344 152.492188 362.535156 152.515625 362.839844 152.558594 C 363.136719 152.597656 363.382812 152.664062 363.578125 152.753906 C 363.863281 152.882812 364.070312 153.054688 364.183594 153.269531 C 364.304688 153.492188 364.367188 153.75 364.367188 154.042969 Z M 364.164062 157.558594 C 365.054688 157.273438 365.734375 156.84375 366.179688 156.285156 C 366.65625 155.683594 366.898438 154.945312 366.898438 154.085938 C 366.898438 153.269531 366.699219 152.574219 366.300781 152.03125 C 365.910156 151.484375 365.34375 151.070312 364.621094 150.792969 C 364.246094 150.65625 363.792969 150.550781 363.269531 150.480469 C 362.75 150.414062 362.183594 150.378906 361.585938 150.378906 L 357.832031 150.378906 L 357.832031 162.527344 L 360.296875 162.527344 L 360.296875 157.941406 L 361.558594 157.941406 L 364.785156 162.527344 L 367.757812 162.527344 L 364.164062 157.558594 " fill-opacity="1" fill-rule="nonzero"/><g clip-path="url(#50796199f0)"><path fill="#000000" d="M 362.503906 145.765625 C 356.617188 145.765625 351.832031 150.554688 351.832031 156.4375 C 351.832031 162.324219 356.617188 167.109375 362.503906 167.109375 C 368.386719 167.109375 373.175781 162.324219 373.175781 156.4375 C 373.175781 150.554688 368.386719 145.765625 362.503906 145.765625 Z M 362.503906 169.1875 C 360.78125 169.1875 359.113281 168.851562 357.539062 168.1875 C 356.019531 167.542969 354.65625 166.625 353.488281 165.453125 C 352.316406 164.285156 351.398438 162.921875 350.753906 161.402344 C 350.089844 159.828125 349.753906 158.160156 349.753906 156.4375 C 349.753906 154.71875 350.089844 153.046875 350.753906 151.476562 C 351.398438 149.957031 352.316406 148.59375 353.488281 147.421875 C 354.65625 146.253906 356.019531 145.332031 357.539062 144.691406 C 359.113281 144.027344 360.78125 143.6875 362.503906 143.6875 C 364.222656 143.6875 365.894531 144.027344 367.464844 144.691406 C 368.984375 145.332031 370.347656 146.253906 371.519531 147.421875 C 372.6875 148.59375 373.609375 149.957031 374.25 151.476562 C 374.914062 153.046875 375.253906 154.71875 375.253906 156.4375 C 375.253906 158.160156 374.914062 159.828125 374.25 161.402344 C 373.609375 162.921875 372.6875 164.285156 371.519531 165.453125 C 370.347656 166.625 368.984375 167.542969 367.464844 168.1875 C 365.894531 168.851562 364.222656 169.1875 362.503906 169.1875 " fill-opacity="1" fill-rule="nonzero"/></g><g transform="matrix(1, 0, 0, 1, 14, 138)"><g clip-path="url(#025eeee5d4)"><g fill="#222222" fill-opacity="1"><g transform="translate(0.174803, 70.06336)"><g><path d="M 33.78125 0.734375 C 31.21875 0.734375 28.921875 0.175781 26.890625 -0.9375 C 24.859375 -2.0625 23.253906 -3.617188 22.078125 -5.609375 C 20.898438 -7.597656 20.3125 -9.851562 20.3125 -12.375 L 20.3125 -31.046875 C 20.3125 -31.691406 20.144531 -32.28125 19.8125 -32.8125 C 19.488281 -33.34375 19.0625 -33.769531 18.53125 -34.09375 C 18.007812 -34.414062 17.421875 -34.578125 16.765625 -34.578125 C 16.117188 -34.578125 15.53125 -34.414062 15 -34.09375 C 14.46875 -33.769531 14.050781 -33.34375 13.75 -32.8125 C 13.445312 -32.28125 13.296875 -31.691406 13.296875 -31.046875 L 13.296875 0 L 3.296875 0 L 3.296875 -30.3125 C 3.296875 -32.875 3.875 -35.128906 5.03125 -37.078125 C 6.1875 -39.023438 7.789062 -40.566406 9.84375 -41.703125 C 11.894531 -42.847656 14.203125 -43.421875 16.765625 -43.421875 C 19.367188 -43.421875 21.6875 -42.847656 23.71875 -41.703125 C 25.75 -40.566406 27.351562 -39.023438 28.53125 -37.078125 C 29.71875 -35.128906 30.3125 -32.875 30.3125 -30.3125 L 30.3125 -11.640625 C 30.3125 -10.992188 30.472656 -10.394531 30.796875 -9.84375 C 31.117188 -9.300781 31.535156 -8.875 32.046875 -8.5625 C 32.554688 -8.257812 33.113281 -8.109375 33.71875 -8.109375 C 34.375 -8.109375 34.972656 -8.257812 35.515625 -8.5625 C 36.066406 -8.875 36.503906 -9.300781 36.828125 -9.84375 C 37.160156 -10.394531 37.328125 -10.992188 37.328125 -11.640625 L 37.328125 -42.6875 L 47.265625 -42.6875 L 47.265625 -12.375 C 47.265625 -9.851562 46.671875 -7.597656 45.484375 -5.609375 C 44.304688 -3.617188 42.703125 -2.0625 40.671875 -0.9375 C 38.640625 0.175781 36.34375 0.734375 33.78125 0.734375 Z M 33.78125 0.734375 "/></g></g></g><g fill="#222222" fill-opacity="1"><g transform="translate(45.779723, 70.06336)"><g><path d="M 34.453125 13.296875 C 31.929688 13.296875 29.773438 12.847656 27.984375 11.953125 C 26.203125 11.054688 24.84375 9.796875 23.90625 8.171875 C 22.96875 6.546875 22.5 4.65625 22.5 2.5 C 22.5 2.050781 22.507812 1.59375 22.53125 1.125 C 22.550781 0.65625 22.601562 0.160156 22.6875 -0.359375 C 19.550781 -0.398438 16.703125 -0.988281 14.140625 -2.125 C 11.585938 -3.269531 9.382812 -4.816406 7.53125 -6.765625 C 5.675781 -8.722656 4.25 -10.988281 3.25 -13.5625 C 2.257812 -16.144531 1.765625 -18.898438 1.765625 -21.828125 C 1.765625 -24.835938 2.28125 -27.644531 3.3125 -30.25 C 4.351562 -32.851562 5.835938 -35.140625 7.765625 -37.109375 C 9.703125 -39.078125 12.03125 -40.617188 14.75 -41.734375 C 17.476562 -42.859375 20.507812 -43.421875 23.84375 -43.421875 C 27.175781 -43.421875 30.203125 -42.890625 32.921875 -41.828125 C 35.648438 -40.773438 37.988281 -39.269531 39.9375 -37.3125 C 41.894531 -35.363281 43.390625 -33.109375 44.421875 -30.546875 C 45.460938 -27.992188 45.984375 -25.210938 45.984375 -22.203125 L 45.984375 1.28125 C 45.984375 3.4375 45.566406 5.425781 44.734375 7.25 C 43.898438 9.082031 42.628906 10.546875 40.921875 11.640625 C 39.210938 12.742188 37.054688 13.296875 34.453125 13.296875 Z M 33.90625 4.578125 C 34.675781 4.578125 35.273438 4.257812 35.703125 3.625 C 36.128906 3 36.34375 2.175781 36.34375 1.15625 L 36.34375 -8.78125 C 35.488281 -8.050781 34.742188 -7.296875 34.109375 -6.515625 C 33.484375 -5.742188 32.988281 -4.941406 32.625 -4.109375 C 32.257812 -3.273438 31.984375 -2.421875 31.796875 -1.546875 C 31.617188 -0.679688 31.53125 0.21875 31.53125 1.15625 C 31.53125 1.882812 31.628906 2.503906 31.828125 3.015625 C 32.035156 3.523438 32.332031 3.910156 32.71875 4.171875 C 33.101562 4.441406 33.5 4.578125 33.90625 4.578125 Z M 23.484375 -9.03125 C 23.929688 -9.03125 24.347656 -9.046875 24.734375 -9.078125 C 25.117188 -9.117188 25.515625 -9.179688 25.921875 -9.265625 C 26.648438 -10.367188 27.5 -11.457031 28.46875 -12.53125 C 29.445312 -13.601562 30.546875 -14.648438 31.765625 -15.671875 C 32.992188 -16.691406 34.335938 -17.648438 35.796875 -18.546875 L 35.796875 -22.5 C 35.796875 -24.25 35.5 -25.875 34.90625 -27.375 C 34.320312 -28.882812 33.488281 -30.1875 32.40625 -31.28125 C 31.332031 -32.382812 30.070312 -33.238281 28.625 -33.84375 C 27.1875 -34.457031 25.613281 -34.765625 23.90625 -34.765625 C 22.195312 -34.765625 20.617188 -34.445312 19.171875 -33.8125 C 17.734375 -33.1875 16.472656 -32.28125 15.390625 -31.09375 C 14.316406 -29.914062 13.484375 -28.546875 12.890625 -26.984375 C 12.304688 -25.421875 12.015625 -23.722656 12.015625 -21.890625 C 12.015625 -20.066406 12.285156 -18.378906 12.828125 -16.828125 C 13.378906 -15.285156 14.171875 -13.929688 15.203125 -12.765625 C 16.242188 -11.609375 17.46875 -10.707031 18.875 -10.0625 C 20.28125 -9.414062 21.816406 -9.070312 23.484375 -9.03125 Z M 23.484375 -9.03125 "/></g></g></g><g fill="#222222" fill-opacity="1"><g transform="translate(89.555534, 70.06336)"><g><path d="M 24.390625 0.796875 C 20.972656 0.796875 17.882812 0.226562 15.125 -0.90625 C 12.363281 -2.050781 9.984375 -3.640625 7.984375 -5.671875 C 5.992188 -7.703125 4.457031 -10.054688 3.375 -12.734375 C 2.300781 -15.421875 1.765625 -18.3125 1.765625 -21.40625 C 1.765625 -24.5 2.300781 -27.382812 3.375 -30.0625 C 4.457031 -32.75 5.984375 -35.097656 7.953125 -37.109375 C 9.929688 -39.117188 12.3125 -40.679688 15.09375 -41.796875 C 17.875 -42.921875 20.972656 -43.484375 24.390625 -43.484375 C 27.765625 -43.484375 30.84375 -42.921875 33.625 -41.796875 C 36.414062 -40.679688 38.796875 -39.117188 40.765625 -37.109375 C 42.734375 -35.097656 44.265625 -32.738281 45.359375 -30.03125 C 46.460938 -27.332031 47.015625 -24.457031 47.015625 -21.40625 C 47.015625 -18.3125 46.460938 -15.421875 45.359375 -12.734375 C 44.265625 -10.054688 42.734375 -7.703125 40.765625 -5.671875 C 38.796875 -3.640625 36.414062 -2.050781 33.625 -0.90625 C 30.84375 0.226562 27.765625 0.796875 24.390625 0.796875 Z M 24.390625 -7.921875 C 26.179688 -7.921875 27.835938 -8.253906 29.359375 -8.921875 C 30.890625 -9.597656 32.203125 -10.546875 33.296875 -11.765625 C 34.390625 -12.984375 35.242188 -14.414062 35.859375 -16.0625 C 36.472656 -17.71875 36.78125 -19.5 36.78125 -21.40625 C 36.78125 -23.3125 36.472656 -25.078125 35.859375 -26.703125 C 35.242188 -28.335938 34.390625 -29.765625 33.296875 -30.984375 C 32.203125 -32.203125 30.890625 -33.144531 29.359375 -33.8125 C 27.835938 -34.488281 26.179688 -34.828125 24.390625 -34.828125 C 22.566406 -34.828125 20.898438 -34.488281 19.390625 -33.8125 C 17.890625 -33.144531 16.578125 -32.203125 15.453125 -30.984375 C 14.335938 -29.765625 13.484375 -28.328125 12.890625 -26.671875 C 12.304688 -25.023438 12.015625 -23.269531 12.015625 -21.40625 C 12.015625 -19.5 12.304688 -17.71875 12.890625 -16.0625 C 13.484375 -14.414062 14.335938 -12.984375 15.453125 -11.765625 C 16.578125 -10.546875 17.890625 -9.597656 19.390625 -8.921875 C 20.898438 -8.253906 22.566406 -7.921875 24.390625 -7.921875 Z M 24.390625 -7.921875 "/></g></g></g><g fill="#222222" fill-opacity="1"><g transform="translate(133.270374, 70.06336)"><g><path d="M 24.453125 0 C 20.953125 0 17.800781 -0.535156 15 -1.609375 C 12.195312 -2.691406 9.816406 -4.207031 7.859375 -6.15625 C 5.910156 -8.113281 4.40625 -10.378906 3.34375 -12.953125 C 2.289062 -15.535156 1.765625 -18.332031 1.765625 -21.34375 C 1.765625 -24.351562 2.289062 -27.148438 3.34375 -29.734375 C 4.40625 -32.316406 5.921875 -34.582031 7.890625 -36.53125 C 9.867188 -38.476562 12.25 -39.988281 15.03125 -41.0625 C 17.8125 -42.144531 20.953125 -42.6875 24.453125 -42.6875 L 31.046875 -42.6875 L 31.046875 -34.15625 L 24.703125 -34.15625 C 22.785156 -34.15625 21.046875 -33.828125 19.484375 -33.171875 C 17.921875 -32.523438 16.578125 -31.617188 15.453125 -30.453125 C 14.335938 -29.296875 13.484375 -27.945312 12.890625 -26.40625 C 12.304688 -24.863281 12.015625 -23.175781 12.015625 -21.34375 C 12.015625 -19.507812 12.304688 -17.820312 12.890625 -16.28125 C 13.484375 -14.738281 14.335938 -13.382812 15.453125 -12.21875 C 16.578125 -11.0625 17.921875 -10.15625 19.484375 -9.5 C 21.046875 -8.851562 22.785156 -8.53125 24.703125 -8.53125 L 31.046875 -8.53125 L 31.046875 0 Z M 24.453125 0 "/></g></g></g><g fill="#222222" fill-opacity="1"><g transform="translate(161.376789, 70.06336)"><g><path d="M 25.671875 0 C 23.066406 0 20.78125 -0.578125 18.8125 -1.734375 C 16.84375 -2.890625 15.296875 -4.441406 14.171875 -6.390625 C 13.054688 -8.347656 12.5 -10.523438 12.5 -12.921875 L 12.5 -34.15625 L 0.921875 -34.15625 L 0.921875 -42.6875 L 34.265625 -42.6875 L 34.265625 -34.15625 L 22.75 -34.15625 L 22.75 -12.015625 C 22.75 -11.078125 23.070312 -10.257812 23.71875 -9.5625 C 24.375 -8.875 25.1875 -8.53125 26.15625 -8.53125 L 29.515625 -8.53125 L 29.515625 0 Z M 25.671875 0 "/></g></g></g><g fill="#222222" fill-opacity="1"><g transform="translate(191.556217, 70.06336)"><g><path d="M 3.71875 0 L 3.71875 -42.6875 L 23.234375 -42.6875 C 26.117188 -42.6875 28.75 -42.054688 31.125 -40.796875 C 33.507812 -39.535156 35.398438 -37.785156 36.796875 -35.546875 C 38.203125 -33.316406 38.90625 -30.738281 38.90625 -27.8125 C 38.90625 -25.082031 38.253906 -22.628906 36.953125 -20.453125 C 35.648438 -18.285156 33.941406 -16.53125 31.828125 -15.1875 L 35.25 -9.390625 C 35.445312 -9.109375 35.675781 -8.882812 35.9375 -8.71875 C 36.207031 -8.5625 36.566406 -8.484375 37.015625 -8.484375 L 40.796875 -8.484375 L 40.796875 0 L 34.828125 0 C 32.992188 0 31.320312 -0.4375 29.8125 -1.3125 C 28.3125 -2.1875 27.132812 -3.332031 26.28125 -4.75 L 21.703125 -12.875 C 21.421875 -12.875 21.128906 -12.875 20.828125 -12.875 C 20.523438 -12.875 20.207031 -12.875 19.875 -12.875 L 13.96875 -12.875 L 13.96875 0 Z M 13.96875 -21.34375 L 22.078125 -21.34375 C 23.253906 -21.34375 24.347656 -21.597656 25.359375 -22.109375 C 26.378906 -22.617188 27.179688 -23.347656 27.765625 -24.296875 C 28.359375 -25.253906 28.65625 -26.40625 28.65625 -27.75 C 28.65625 -29.09375 28.347656 -30.238281 27.734375 -31.1875 C 27.128906 -32.144531 26.328125 -32.878906 25.328125 -33.390625 C 24.335938 -33.898438 23.253906 -34.15625 22.078125 -34.15625 L 13.96875 -34.15625 Z M 13.96875 -21.34375 "/></g></g></g><g fill="#222222" fill-opacity="1"><g transform="translate(228.259462, 70.06336)"><g><path d="M 0 0 L 13.84375 -37.75 C 14.53125 -39.613281 15.664062 -41.023438 17.25 -41.984375 C 18.84375 -42.941406 20.632812 -43.421875 22.625 -43.421875 C 24.613281 -43.421875 26.398438 -42.960938 27.984375 -42.046875 C 29.578125 -41.128906 30.71875 -39.71875 31.40625 -37.8125 L 45.3125 0 L 34.265625 0 L 31.59375 -8.234375 L 13.484375 -8.234375 L 10.671875 0 Z M 16.09375 -16.703125 L 28.96875 -16.703125 L 23.546875 -33.71875 C 23.460938 -33.96875 23.347656 -34.140625 23.203125 -34.234375 C 23.054688 -34.335938 22.882812 -34.390625 22.6875 -34.390625 C 22.476562 -34.390625 22.300781 -34.328125 22.15625 -34.203125 C 22.019531 -34.085938 21.929688 -33.925781 21.890625 -33.71875 Z M 16.09375 -16.703125 "/></g></g></g><g fill="#222222" fill-opacity="1"><g transform="translate(268.559958, 70.06336)"><g><path d="M 33.78125 0.734375 C 31.300781 0.734375 29.035156 0.1875 26.984375 -0.90625 C 24.929688 -2.007812 23.304688 -3.535156 22.109375 -5.484375 C 20.910156 -7.441406 20.3125 -9.757812 20.3125 -12.4375 L 20.3125 -31.046875 C 20.3125 -31.691406 20.144531 -32.28125 19.8125 -32.8125 C 19.488281 -33.34375 19.0625 -33.769531 18.53125 -34.09375 C 18.007812 -34.414062 17.421875 -34.578125 16.765625 -34.578125 C 16.117188 -34.578125 15.53125 -34.414062 15 -34.09375 C 14.46875 -33.769531 14.050781 -33.34375 13.75 -32.8125 C 13.445312 -32.28125 13.296875 -31.691406 13.296875 -31.046875 L 13.296875 0 L 3.296875 0 L 3.296875 -30.3125 C 3.296875 -32.875 3.875 -35.128906 5.03125 -37.078125 C 6.1875 -39.023438 7.789062 -40.566406 9.84375 -41.703125 C 11.894531 -42.847656 14.203125 -43.421875 16.765625 -43.421875 C 19.367188 -43.421875 21.6875 -42.847656 23.71875 -41.703125 C 25.75 -40.566406 27.351562 -39.023438 28.53125 -37.078125 C 29.71875 -35.128906 30.3125 -32.875 30.3125 -30.3125 L 30.3125 -11.703125 C 30.3125 -11.015625 30.472656 -10.40625 30.796875 -9.875 C 31.117188 -9.351562 31.535156 -8.9375 32.046875 -8.625 C 32.554688 -8.320312 33.113281 -8.171875 33.71875 -8.171875 C 34.375 -8.171875 34.972656 -8.320312 35.515625 -8.625 C 36.066406 -8.9375 36.503906 -9.351562 36.828125 -9.875 C 37.160156 -10.40625 37.328125 -11.015625 37.328125 -11.703125 L 37.328125 -30.3125 C 37.328125 -32.875 37.914062 -35.128906 39.09375 -37.078125 C 40.269531 -39.023438 41.882812 -40.566406 43.9375 -41.703125 C 45.988281 -42.847656 48.273438 -43.421875 50.796875 -43.421875 C 53.398438 -43.421875 55.707031 -42.847656 57.71875 -41.703125 C 59.726562 -40.566406 61.320312 -39.023438 62.5 -37.078125 C 63.6875 -35.128906 64.28125 -32.875 64.28125 -30.3125 L 64.28125 0 L 54.28125 0 L 54.28125 -31.109375 C 54.28125 -31.753906 54.125 -32.332031 53.8125 -32.84375 C 53.507812 -33.351562 53.09375 -33.769531 52.5625 -34.09375 C 52.039062 -34.414062 51.453125 -34.578125 50.796875 -34.578125 C 50.191406 -34.578125 49.613281 -34.414062 49.0625 -34.09375 C 48.507812 -33.769531 48.070312 -33.351562 47.75 -32.84375 C 47.425781 -32.332031 47.265625 -31.753906 47.265625 -31.109375 L 47.265625 -12.4375 C 47.265625 -9.757812 46.65625 -7.441406 45.4375 -5.484375 C 44.21875 -3.535156 42.585938 -2.007812 40.546875 -0.90625 C 38.515625 0.1875 36.257812 0.734375 33.78125 0.734375 Z M 33.78125 0.734375 "/></g></g></g><g clip-path="url(#1186129b04)"><g fill="#222222" fill-opacity="1"><g transform="translate(331.11465, 70.06336)"><g><path d="M 8.171875 0.734375 C 6.546875 0.734375 5.148438 0.15625 3.984375 -1 C 2.828125 -2.164062 2.25 -3.539062 2.25 -5.125 C 2.25 -6.75 2.828125 -8.140625 3.984375 -9.296875 C 5.148438 -10.453125 6.546875 -11.03125 8.171875 -11.03125 C 9.753906 -11.03125 11.125 -10.453125 12.28125 -9.296875 C 13.445312 -8.140625 14.03125 -6.75 14.03125 -5.125 C 14.03125 -4.0625 13.765625 -3.082031 13.234375 -2.1875 C 12.703125 -1.300781 12 -0.59375 11.125 -0.0625 C 10.25 0.46875 9.265625 0.734375 8.171875 0.734375 Z M 8.171875 0.734375 "/></g></g></g></g></g></g></svg>